<svg width="180" height="120" viewBox="0 0 180 120" fill="none" xmlns="http://www.w3.org/2000/svg">
<rect x="156" y="40" width="132" height="20" transform="rotate(-180 156 40)" fill="#FF865C"/>
<path d="M168 56L168 60L12 60L12 56L16 56L16 52L20 52L20 48L24 48L24 40L156 40L156 48L160 48L160 52L164 52L164 56L168 56Z" fill="#FFEA5C"/>
<path d="M156 68L156 80L24 80L24 68L20 68L20 64L16 64L16 60L164 60L164 64L160 64L160 68L156 68Z" fill="#00DA76"/>
<rect x="156" y="100" width="132" height="20" transform="rotate(-180 156 100)" fill="#0096CE"/>
<path fill-rule="evenodd" clip-rule="evenodd" d="M32 120V116H20V112H16L16 104H12L12 68H8V64H4V60H0L0 56H4V52H8V48H12L12 16H16V8H20V4H32V0L148 0L148 4H160V8H164V16H168V48H172V52L176 52V56H180V60H176V64H172V68H168V104L164 104V112H160V116H148V120L32 120ZM24 100L24 68H20V64H16V60H12V56H16V52H20V48H24L24 20L156 20V48H160V52H164V56H168V60H164V64H160V68H156V100L24 100Z" fill="url(#paint0_linear_14_227)"/>
<defs>
<linearGradient id="paint0_linear_14_227" x1="90" y1="120" x2="90" y2="0" gradientUnits="userSpaceOnUse">
<stop offset="0.166667" stop-color="#800FFF"/>
<stop offset="0.833333" stop-color="#F50D5A"/>
</linearGradient>
</defs>
</svg>
