<svg width="262" height="19" viewBox="0 0 262 19" fill="none" xmlns="http://www.w3.org/2000/svg">
<path d="M5.00589 1.527C6.04989 1.527 6.93789 1.782 7.66989 2.292C8.40189 2.802 8.95989 3.486 9.34389 4.344C9.72789 5.196 9.91989 6.147 9.91989 7.197C9.91989 8.241 9.72789 9.192 9.34389 10.05C8.95989 10.902 8.40189 11.583 7.66989 12.093C6.93789 12.603 6.04989 12.858 5.00589 12.858C3.95589 12.858 3.06189 12.603 2.32389 12.093C1.58589 11.583 1.02189 10.902 0.631891 10.05C0.247891 9.192 0.0558906 8.241 0.0558906 7.197C0.0558906 6.147 0.250891 5.196 0.640891 4.344C1.03089 3.486 1.59489 2.802 2.33289 2.292C3.07089 1.782 3.96189 1.527 5.00589 1.527ZM5.00589 2.481C4.13589 2.481 3.41589 2.694 2.84589 3.12C2.27589 3.54 1.84989 4.107 1.56789 4.821C1.28589 5.535 1.14489 6.327 1.14489 7.197C1.14489 8.061 1.28589 8.847 1.56789 9.555C1.84989 10.263 2.27589 10.83 2.84589 11.256C3.41589 11.676 4.13589 11.886 5.00589 11.886C5.86989 11.886 6.58389 11.676 7.14789 11.256C7.71789 10.83 8.14389 10.263 8.42589 9.555C8.70789 8.847 8.84889 8.061 8.84889 7.197C8.84889 6.327 8.70789 5.535 8.42589 4.821C8.14989 4.107 7.72689 3.54 7.15689 3.12C6.58689 2.694 5.86989 2.481 5.00589 2.481ZM5.08689 3.75C5.54289 3.75 5.92689 3.81 6.23889 3.93C6.55689 4.05 6.87189 4.233 7.18389 4.479L6.50889 5.379C6.08889 5.037 5.63889 4.866 5.15889 4.866C4.70889 4.866 4.32789 5.046 4.01589 5.406C3.70389 5.76 3.54789 6.351 3.54789 7.179C3.54789 7.959 3.69489 8.532 3.98889 8.898C4.28889 9.264 4.67889 9.447 5.15889 9.447C5.47089 9.447 5.74689 9.393 5.98689 9.285C6.22689 9.177 6.44889 9.03 6.65289 8.844L7.27389 9.762C7.02189 9.99 6.71889 10.188 6.36489 10.356C6.01689 10.524 5.59689 10.608 5.10489 10.608C4.23489 10.608 3.52389 10.314 2.97189 9.726C2.41989 9.138 2.14389 8.289 2.14389 7.179C2.14389 6.435 2.27589 5.808 2.53989 5.298C2.80989 4.788 3.16689 4.404 3.61089 4.146C4.06089 3.882 4.55289 3.75 5.08689 3.75ZM25.3762 2.373C26.1802 2.373 26.8672 2.529 27.4372 2.841C28.0132 3.147 28.4512 3.564 28.7512 4.092C29.0512 4.614 29.2012 5.202 29.2012 5.856C29.2012 6.414 29.1052 6.96 28.9132 7.494C28.7212 8.028 28.4092 8.589 27.9772 9.177C27.5512 9.759 26.9902 10.407 26.2942 11.121C25.5982 11.835 24.7462 12.651 23.7382 13.569H29.4892L29.2822 15H21.7672V13.641C22.9132 12.543 23.8522 11.613 24.5842 10.851C25.3162 10.083 25.8862 9.423 26.2942 8.871C26.7082 8.313 26.9962 7.806 27.1582 7.35C27.3202 6.894 27.4012 6.423 27.4012 5.937C27.4012 5.271 27.2122 4.746 26.8342 4.362C26.4622 3.978 25.9432 3.786 25.2772 3.786C24.6892 3.786 24.2032 3.891 23.8192 4.101C23.4352 4.311 23.0512 4.644 22.6672 5.1L21.5152 4.209C22.0012 3.603 22.5502 3.147 23.1622 2.841C23.7742 2.529 24.5122 2.373 25.3762 2.373ZM36.3668 2.373C37.7228 2.373 38.7488 2.931 39.4448 4.047C40.1468 5.157 40.4978 6.738 40.4978 8.79C40.4978 10.848 40.1468 12.435 39.4448 13.551C38.7488 14.667 37.7228 15.225 36.3668 15.225C35.0108 15.225 33.9818 14.667 33.2798 13.551C32.5838 12.435 32.2358 10.848 32.2358 8.79C32.2358 6.738 32.5838 5.157 33.2798 4.047C33.9818 2.931 35.0108 2.373 36.3668 2.373ZM36.3668 3.732C35.6288 3.732 35.0498 4.125 34.6298 4.911C34.2158 5.697 34.0088 6.99 34.0088 8.79C34.0088 10.122 34.1018 11.166 34.2878 11.922L37.9598 4.497C37.5998 3.987 37.0688 3.732 36.3668 3.732ZM38.7248 8.79C38.7248 7.5 38.6378 6.486 38.4638 5.748L34.8188 13.155C35.1788 13.629 35.6948 13.866 36.3668 13.866C37.1168 13.866 37.6958 13.473 38.1038 12.687C38.5178 11.895 38.7248 10.596 38.7248 8.79ZM46.2954 2.373C47.0994 2.373 47.7864 2.529 48.3564 2.841C48.9324 3.147 49.3704 3.564 49.6704 4.092C49.9704 4.614 50.1204 5.202 50.1204 5.856C50.1204 6.414 50.0244 6.96 49.8324 7.494C49.6404 8.028 49.3284 8.589 48.8964 9.177C48.4704 9.759 47.9094 10.407 47.2134 11.121C46.5174 11.835 45.6654 12.651 44.6574 13.569H50.4084L50.2014 15H42.6864V13.641C43.8324 12.543 44.7714 11.613 45.5034 10.851C46.2354 10.083 46.8054 9.423 47.2134 8.871C47.6274 8.313 47.9154 7.806 48.0774 7.35C48.2394 6.894 48.3204 6.423 48.3204 5.937C48.3204 5.271 48.1314 4.746 47.7534 4.362C47.3814 3.978 46.8624 3.786 46.1964 3.786C45.6084 3.786 45.1224 3.891 44.7384 4.101C44.3544 4.311 43.9704 4.644 43.5864 5.1L42.4344 4.209C42.9204 3.603 43.4694 3.147 44.0814 2.841C44.6934 2.529 45.4314 2.373 46.2954 2.373ZM57.2861 2.373C58.6421 2.373 59.6681 2.931 60.3641 4.047C61.0661 5.157 61.4171 6.738 61.4171 8.79C61.4171 10.848 61.0661 12.435 60.3641 13.551C59.6681 14.667 58.6421 15.225 57.2861 15.225C55.9301 15.225 54.9011 14.667 54.1991 13.551C53.5031 12.435 53.1551 10.848 53.1551 8.79C53.1551 6.738 53.5031 5.157 54.1991 4.047C54.9011 2.931 55.9301 2.373 57.2861 2.373ZM57.2861 3.732C56.5481 3.732 55.9691 4.125 55.5491 4.911C55.1351 5.697 54.9281 6.99 54.9281 8.79C54.9281 10.122 55.0211 11.166 55.2071 11.922L58.8791 4.497C58.5191 3.987 57.9881 3.732 57.2861 3.732ZM59.6441 8.79C59.6441 7.5 59.5571 6.486 59.3831 5.748L55.7381 13.155C56.0981 13.629 56.6141 13.866 57.2861 13.866C58.0361 13.866 58.6151 13.473 59.0231 12.687C59.4371 11.895 59.6441 10.596 59.6441 8.79ZM82.8133 8.736C82.8133 10.026 82.6453 11.082 82.3093 11.904C81.9733 12.726 81.5263 13.362 80.9683 13.812C80.4163 14.256 79.8073 14.565 79.1413 14.739C78.4753 14.913 77.8093 15 77.1433 15H74.2183V2.598H76.9453C77.6833 2.598 78.4003 2.679 79.0963 2.841C79.7923 3.003 80.4193 3.303 80.9773 3.741C81.5413 4.173 81.9883 4.791 82.3183 5.595C82.6483 6.399 82.8133 7.446 82.8133 8.736ZM80.9233 8.736C80.9233 7.698 80.8153 6.864 80.5993 6.234C80.3893 5.604 80.1073 5.13 79.7533 4.812C79.3993 4.494 79.0093 4.281 78.5833 4.173C78.1633 4.065 77.7433 4.011 77.3233 4.011H76.0003V13.605H77.3413C77.7793 13.605 78.2113 13.536 78.6373 13.398C79.0633 13.26 79.4473 13.014 79.7893 12.66C80.1373 12.306 80.4133 11.811 80.6173 11.175C80.8213 10.539 80.9233 9.726 80.9233 8.736ZM86.379 10.842C86.427 11.886 86.709 12.645 87.225 13.119C87.747 13.593 88.365 13.83 89.079 13.83C89.553 13.83 89.988 13.758 90.384 13.614C90.78 13.47 91.182 13.26 91.59 12.984L92.373 14.073C91.929 14.427 91.416 14.709 90.834 14.919C90.252 15.123 89.649 15.225 89.025 15.225C88.077 15.225 87.27 15.018 86.604 14.604C85.944 14.184 85.44 13.602 85.092 12.858C84.75 12.114 84.579 11.25 84.579 10.266C84.579 9.312 84.75 8.46 85.092 7.71C85.44 6.96 85.929 6.369 86.559 5.937C87.189 5.505 87.939 5.289 88.809 5.289C90.033 5.289 90.996 5.709 91.698 6.549C92.406 7.383 92.76 8.526 92.76 9.978C92.76 10.14 92.757 10.296 92.751 10.446C92.745 10.596 92.736 10.728 92.724 10.842H86.379ZM88.827 6.639C88.149 6.639 87.588 6.879 87.144 7.359C86.7 7.839 86.445 8.58 86.379 9.582H91.095C91.077 8.622 90.867 7.893 90.465 7.395C90.069 6.891 89.523 6.639 88.827 6.639ZM103.526 5.514L100.124 15H98.1076L94.7236 5.514H96.5596L99.1606 13.497L101.753 5.514H103.526ZM109.224 13.848C109.914 13.848 110.457 13.722 110.853 13.47C111.255 13.218 111.456 12.876 111.456 12.444C111.456 12.168 111.402 11.934 111.294 11.742C111.192 11.544 110.976 11.364 110.646 11.202C110.322 11.034 109.83 10.866 109.17 10.698C108.522 10.536 107.958 10.347 107.478 10.131C107.004 9.915 106.635 9.633 106.371 9.285C106.113 8.937 105.984 8.487 105.984 7.935C105.984 7.131 106.32 6.489 106.992 6.009C107.664 5.529 108.555 5.289 109.665 5.289C110.445 5.289 111.123 5.394 111.699 5.604C112.275 5.808 112.767 6.06 113.175 6.36L112.437 7.485C112.071 7.245 111.669 7.047 111.231 6.891C110.799 6.729 110.289 6.648 109.701 6.648C108.999 6.648 108.498 6.756 108.198 6.972C107.904 7.182 107.757 7.461 107.757 7.809C107.757 8.073 107.829 8.292 107.973 8.466C108.123 8.634 108.378 8.79 108.738 8.934C109.098 9.072 109.596 9.228 110.232 9.402C110.85 9.57 111.39 9.768 111.852 9.996C112.314 10.224 112.671 10.524 112.923 10.896C113.181 11.262 113.31 11.745 113.31 12.345C113.31 13.023 113.115 13.575 112.725 14.001C112.335 14.421 111.828 14.73 111.204 14.928C110.586 15.126 109.926 15.225 109.224 15.225C108.36 15.225 107.616 15.099 106.992 14.847C106.374 14.595 105.855 14.286 105.435 13.92L106.389 12.822C106.755 13.128 107.178 13.377 107.658 13.569C108.144 13.755 108.666 13.848 109.224 13.848ZM115.544 18.276V16.809H124.544V18.276H115.544ZM134.689 2.598V10.959C134.689 11.799 134.518 12.54 134.176 13.182C133.84 13.824 133.357 14.325 132.727 14.685C132.103 15.045 131.356 15.225 130.486 15.225C129.61 15.225 128.86 15.045 128.236 14.685C127.612 14.325 127.135 13.824 126.805 13.182C126.481 12.54 126.319 11.799 126.319 10.959V2.598H128.101V10.824C128.101 12.768 128.896 13.74 130.486 13.74C132.088 13.74 132.889 12.768 132.889 10.824V2.598H134.689ZM137.282 15V5.514H138.767L138.893 6.792C139.283 6.306 139.757 5.934 140.315 5.676C140.879 5.418 141.44 5.289 141.998 5.289C142.91 5.289 143.582 5.538 144.014 6.036C144.446 6.528 144.662 7.215 144.662 8.097V15H142.934V9.159C142.934 8.559 142.898 8.073 142.826 7.701C142.76 7.329 142.619 7.059 142.403 6.891C142.187 6.717 141.86 6.63 141.422 6.63C140.906 6.63 140.438 6.789 140.018 7.107C139.598 7.425 139.262 7.767 139.01 8.133V15H137.282ZM151.423 0.977999C151.783 0.977999 152.071 1.089 152.287 1.311C152.509 1.533 152.62 1.803 152.62 2.121C152.62 2.451 152.509 2.73 152.287 2.958C152.071 3.18 151.783 3.291 151.423 3.291C151.069 3.291 150.781 3.18 150.559 2.958C150.343 2.73 150.235 2.451 150.235 2.121C150.235 1.803 150.343 1.533 150.559 1.311C150.781 1.089 151.069 0.977999 151.423 0.977999ZM152.71 5.514V13.686H155.347V15H148.093V13.686H150.982V6.828H148.183V5.514H152.71ZM165.905 14.514C165.569 14.73 165.164 14.901 164.69 15.027C164.222 15.159 163.748 15.225 163.268 15.225C162.212 15.225 161.402 14.949 160.838 14.397C160.28 13.845 160.001 13.128 160.001 12.246V6.81H157.85V5.514H160.001V3.372L161.729 3.165V5.514H164.969L164.771 6.81H161.729V12.228C161.729 12.75 161.861 13.143 162.125 13.407C162.395 13.671 162.842 13.803 163.466 13.803C163.814 13.803 164.135 13.764 164.429 13.686C164.729 13.602 165.005 13.491 165.257 13.353L165.905 14.514ZM170.056 10.842C170.104 11.886 170.386 12.645 170.902 13.119C171.424 13.593 172.042 13.83 172.756 13.83C173.23 13.83 173.665 13.758 174.061 13.614C174.457 13.47 174.859 13.26 175.267 12.984L176.05 14.073C175.606 14.427 175.093 14.709 174.511 14.919C173.929 15.123 173.326 15.225 172.702 15.225C171.754 15.225 170.947 15.018 170.281 14.604C169.621 14.184 169.117 13.602 168.769 12.858C168.427 12.114 168.256 11.25 168.256 10.266C168.256 9.312 168.427 8.46 168.769 7.71C169.117 6.96 169.606 6.369 170.236 5.937C170.866 5.505 171.616 5.289 172.486 5.289C173.71 5.289 174.673 5.709 175.375 6.549C176.083 7.383 176.437 8.526 176.437 9.978C176.437 10.14 176.434 10.296 176.428 10.446C176.422 10.596 176.413 10.728 176.401 10.842H170.056ZM172.504 6.639C171.826 6.639 171.265 6.879 170.821 7.359C170.377 7.839 170.122 8.58 170.056 9.582H174.772C174.754 8.622 174.544 7.893 174.142 7.395C173.746 6.891 173.2 6.639 172.504 6.639ZM184.755 1.491L186.483 1.698V15H184.962L184.818 13.785C184.146 14.745 183.252 15.225 182.136 15.225C181.32 15.225 180.645 15.018 180.111 14.604C179.583 14.184 179.19 13.602 178.932 12.858C178.674 12.114 178.545 11.25 178.545 10.266C178.545 9.306 178.692 8.454 178.986 7.71C179.286 6.96 179.712 6.369 180.264 5.937C180.822 5.505 181.494 5.289 182.28 5.289C183.3 5.289 184.125 5.649 184.755 6.369V1.491ZM182.73 6.648C181.986 6.648 181.41 6.945 181.002 7.539C180.6 8.133 180.399 9.042 180.399 10.266C180.399 11.484 180.582 12.387 180.948 12.975C181.32 13.563 181.854 13.857 182.55 13.857C183.048 13.857 183.477 13.716 183.837 13.434C184.203 13.146 184.509 12.81 184.755 12.426V7.791C184.509 7.431 184.212 7.152 183.864 6.954C183.522 6.75 183.144 6.648 182.73 6.648ZM200.067 10.095V8.637H207.375V10.095H200.067Z" fill="#60265B"/>
<path d="M229.041 11.445C229.041 12.129 228.906 12.699 228.636 13.155C228.372 13.611 228.012 13.974 227.556 14.244C227.106 14.514 226.599 14.709 226.035 14.829C225.477 14.943 224.904 15 224.316 15H220.86V2.598H224.055C224.613 2.598 225.156 2.649 225.684 2.751C226.212 2.847 226.689 3.015 227.115 3.255C227.541 3.489 227.877 3.81 228.123 4.218C228.375 4.62 228.501 5.124 228.501 5.73C228.501 6.252 228.39 6.699 228.168 7.071C227.952 7.437 227.67 7.734 227.322 7.962C226.974 8.184 226.602 8.34 226.206 8.43C226.656 8.508 227.097 8.652 227.529 8.862C227.967 9.066 228.327 9.375 228.609 9.789C228.897 10.197 229.041 10.749 229.041 11.445ZM226.683 5.847C226.683 5.175 226.473 4.698 226.053 4.416C225.639 4.128 225.066 3.984 224.334 3.984H222.642V7.818H224.478C225.192 7.818 225.738 7.665 226.116 7.359C226.494 7.047 226.683 6.543 226.683 5.847ZM227.169 11.472C227.169 10.878 227.052 10.419 226.818 10.095C226.59 9.765 226.281 9.537 225.891 9.411C225.507 9.285 225.081 9.222 224.613 9.222H222.642V13.569H224.532C224.934 13.569 225.336 13.518 225.738 13.416C226.146 13.308 226.485 13.104 226.755 12.804C227.031 12.504 227.169 12.06 227.169 11.472ZM233.651 4.002V7.989H238.205V9.402H233.651V13.605H239.222V15H231.86V2.598H239.087L238.88 4.002H233.651ZM246.423 4.083V15H244.641V4.083H240.825V2.598H250.302L250.113 4.083H246.423ZM258.323 11.913H253.625L252.689 15H250.898L254.894 2.598H257.144L261.149 15H259.259L258.323 11.913ZM254.039 10.482H257.909L255.983 4.038L254.039 10.482Z" fill="#F50D5A"/>
</svg>
